<svg xmlns="http://www.w3.org/2000/svg" xmlns:xlink="http://www.w3.org/1999/xlink" xmlns:inkscape="http://www.inkscape.org/namespaces/inkscape" version="1.1" width="258" height="81" viewBox="0 0 258 81">
<path transform="matrix(1.00003,0,0,-1.00005,1.0964966,79.75619)" stroke-width=".3985" stroke-linecap="butt" stroke-miterlimit="10" stroke-linejoin="miter" fill="none" stroke="#000000" d="M0 56.69362 56.69362 14.17339 113.38724 56.69362 56.69362 0Z"/>
<path transform="matrix(1.00003,0,0,-1.00005,1.0964966,79.75619)" stroke-width=".3985" stroke-linecap="butt" stroke-miterlimit="10" stroke-linejoin="miter" fill="none" stroke="#000000" d="M141.73404 56.69362C141.73404 25.38219 167.11624 0 198.42766 0 229.73909 0 255.12128 25.38219 255.12128 56.69362 255.12128 68.4354 245.60295 77.95372 233.86118 77.95372 222.1194 77.95372 212.60108 68.4354 212.60108 56.69362H212.60106C212.60106 48.86577 206.25551 42.52022 198.42766 42.52022 190.59981 42.52022 184.25426 48.86577 184.25426 56.69362H184.25424C184.25424 68.4354 174.73593 77.95372 162.99414 77.95372 151.25237 77.95372 141.73404 68.4354 141.73404 56.69362Z"/>
</svg>
