<svg xmlns="http://www.w3.org/2000/svg" xmlns:xlink="http://www.w3.org/1999/xlink" xmlns:inkscape="http://www.inkscape.org/namespaces/inkscape" version="1.1" width="259" height="230" viewBox="0 0 259 230">
<path transform="matrix(1.00003,0,0,-1.00002,2.0964967,228.57427)" stroke-width=".3985" stroke-linecap="butt" stroke-miterlimit="10" stroke-linejoin="miter" fill="none" stroke="#000000" d="M226.77448 170.08086C226.77448 201.39228 201.39228 226.77448 170.08086 226.77448 138.76943 226.77448 113.38724 201.39228 113.38724 170.08086 113.38724 138.76943 138.76943 113.38724 170.08086 113.38724 201.39228 113.38724 226.77448 138.76943 226.77448 170.08086ZM170.08086 170.08086"/>
<path transform="matrix(1.00003,0,0,-1.00002,2.0964967,228.57427)" stroke-width=".3985" stroke-linecap="butt" stroke-miterlimit="10" stroke-linejoin="miter" fill="none" stroke="#000000" d="M0 0V85.04042H113.38724V0ZM113.38724 85.04042"/>
<path transform="matrix(1.00003,0,0,-1.00002,2.0964967,228.57427)" stroke-width=".3985" stroke-linecap="butt" stroke-miterlimit="10" stroke-linejoin="miter" fill="none" stroke="#000000" d="M141.73404 0 198.42766 85.04042 255.12128 0Z"/>
</svg>
