<svg xmlns="http://www.w3.org/2000/svg" xmlns:xlink="http://www.w3.org/1999/xlink" xmlns:inkscape="http://www.inkscape.org/namespaces/inkscape" version="1.1" width="259" height="259" viewBox="0 0 259 259">
<path transform="matrix(1.00003,0,0,-1.00002,2.0964967,256.92085)" stroke-width=".3985" stroke-linecap="butt" stroke-miterlimit="10" stroke-linejoin="miter" fill="none" stroke="#000000" d="M255.12128 170.08086C255.12128 217.04799 217.04799 255.12128 170.08086 255.12128 123.11371 255.12128 85.04042 217.04799 85.04042 170.08086 85.04042 123.11371 123.11371 85.04042 170.08086 85.04042 217.04799 85.04042 255.12128 123.11371 255.12128 170.08086ZM170.08086 170.08086"/>
<path transform="matrix(1.00003,0,0,-1.00002,2.0964967,256.92085)" stroke-width=".3985" stroke-linecap="butt" stroke-miterlimit="10" stroke-linejoin="miter" fill="none" stroke="#000000" d="M0 0V85.04042H113.38724V0ZM113.38724 85.04042"/>
<path transform="matrix(1.00003,0,0,-1.00002,2.0964967,256.92085)" stroke-width=".3985" stroke-linecap="butt" stroke-miterlimit="10" stroke-linejoin="miter" fill="none" stroke="#000000" d="M141.73404 0 198.42766 85.04042 255.12128 0Z"/>
</svg>
