<svg xmlns="http://www.w3.org/2000/svg" xmlns:xlink="http://www.w3.org/1999/xlink" xmlns:inkscape="http://www.inkscape.org/namespaces/inkscape" version="1.1" width="281" height="283" viewBox="0 0 281 283">
<defs>
<path id="font_1_1" d="M.33399964 .30233766C.33999635 .32835389 .36299134 .42037965 .43299867 .42037965 .43798829 .42037965 .46199037 .42037965 .48298646 .40734864 .45498658 .402359 .43499757 .37734986 .43499757 .35334779 .43499757 .33735658 .44599916 .31835938 .47299195 .31835938 .49499513 .31835938 .5269928 .3363495 .5269928 .37635804 .5269928 .42837525 .46798707 .4423828 .43399049 .4423828 .37599183 .4423828 .34098817 .38935853 .32899476 .36634828 .3039856 .43237306 .25 .4423828 .22099304 .4423828 .116989139 .4423828 .05999756 .3133545 .05999756 .28834535 .05999756 .27833558 .069992069 .27833558 .07199097 .27833558 .07998657 .27833558 .08299255 .28033448 .084991458 .28933717 .11898804 .39535523 .18499756 .42037965 .21899414 .42037965 .23799134 .42037965 .272995 .4113617 .272995 .35334779 .272995 .32235719 .2559967 .25532533 .21899414 .11528015 .20298767 .053268434 .16799927 .011245728 .12399292 .011245728 .117996219 .011245728 .09498596 .011245728 .07398987 .024276734 .09899902 .029266358 .12098694 .05027771 .12098694 .07827759 .12098694 .105270389 .09899902 .11328125 .083999637 .11328125 .053985597 .11328125 .0289917 .08728027 .0289917 .055267335 .0289917 .009246826 .07899475-.0107421879 .12298584-.0107421879 .18899536-.0107421879 .22499085 .059280397 .22799683 .0652771 .23999024 .028274537 .27598573-.0107421879 .33599855-.0107421879 .43899537-.0107421879 .49598695 .118270877 .49598695 .14328003 .49598695 .1532898 .4869995 .1532898 .48399354 .1532898 .47499085 .1532898 .47299195 .14929199 .47099305 .14228821 .43798829 .03527832 .36999513 .011245728 .33799745 .011245728 .29899598 .011245728 .2829895 .043273927 .2829895 .07727051 .2829895 .09927368 .2889862 .121276859 .2999878 .16529846L.33399964 .30233766Z"/>
<path id="font_2_56" d="M.44898988 .20091248C.44898988 .31991578 .36698915 .41992188 .25898744 .41992188 .21099854 .41992188 .16799927 .4039154 .13198853 .36891175V.5641022C.1519928 .55778506 .18499756 .55078127 .21699524 .55078127 .33999635 .55078127 .4099884 .6418457 .4099884 .65493777 .4099884 .6609802 .40699769 .6660156 .3999939 .6660156 .3999939 .66607668 .39698792 .66607668 .3919983 .66308596 .37199403 .65408328 .32299806 .63378909 .2559967 .63378909 .21598816 .63409426 .16999817 .641098 .12298584 .6621094 .114990238 .6651001 .11099243 .6651001 .11099243 .6651001 .100997928 .66508486 .100997928 .657074 .100997928 .64108279V.3447113C.100997928 .3266449 .100997928 .31861878 .114990238 .31861878 .12199402 .31861878 .12399292 .32164 .12799073 .32765199 .13899231 .34371949 .17599488 .3979187 .25698854 .3979187 .30899049 .3979187 .33399964 .3517456 .34199525 .3336792 .35798646 .2965393 .3600006 .2574005 .3600006 .20721436 .3600006 .17218018 .3600006 .112197879 .33599855 .07032776 .31199647 .031448366 .2749939 .0055389406 .22898865 .0055389406 .1559906 .0055389406 .09899902 .05836487 .08198547 .1171875 .084991458 .11685181 .08799744 .115859989 .09899902 .115859989 .13198853 .115859989 .14898682 .14085388 .14898682 .16485596 .14898682 .18885803 .13198853 .21386719 .09899902 .21386719 .084991458 .21386719 .049987794 .2068634 .049987794 .16085816 .049987794 .07432556 .11898804-.022460938 .23098755-.022460938 .34700013-.022460938 .44898988 .07331848 .44898988 .20019531V.20091248Z"/>
<path id="font_2_82" d="M.4189911 0V.0309906H.3869934C.29699708 .0309906 .2939911 .041992189 .2939911 .07902527V.64012148C.2939911 .6640167 .2939911 .6660156 .2709961 .6660156 .20899964 .60227969 .12098694 .60227969 .08898926 .60227969V.57128909C.10899353 .57128909 .16799927 .57128909 .21998596 .5972748V.07902527C.21998596 .042999269 .21699524 .0309906 .1269989 .0309906H.09498596V0C.12998963 .0029907227 .21699524 .0029907227 .25698854 .0029907227 .29699708 .0029907227 .38398744 .0029907227 .4189911 0Z"/>
<path id="font_2_121" d="M.45999146 .31976319C.45999146 .39982606 .45498658 .47988893 .41999818 .5539398 .37399293 .65000918 .2919922 .6660156 .25 .6660156 .18998719 .6660156 .116989139 .64001467 .07598877 .54693606 .04399109 .47789 .038986207 .39982606 .038986207 .31976319 .038986207 .24472046 .042999269 .15464783 .083999637 .07859802 .1269989-.0024719239 .19999695-.022460938 .24899292-.022460938 .30299378-.022460938 .3789978-.0014648438 .4229889 .09359741 .45498658 .16265869 .45999146 .2407074 .45999146 .31976319M.3769989 .3317871C.3769989 .25672914 .3769989 .18867493 .3659973 .12461853 .35099793 .029556275 .2939911-.00047302247 .24899292-.00047302247 .20999146-.00047302247 .15098572 .024551392 .1329956 .12062073 .12199402 .18066406 .12199402 .2727356 .12199402 .3317871 .12199402 .39582826 .12199402 .46188355 .12998963 .5159149 .14898682 .63500979 .22399903 .64401248 .24899292 .64401248 .28199769 .64401248 .34799195 .6259918 .36698915 .52693179 .3769989 .47088624 .3769989 .39482118 .3769989 .3317871Z"/>
<path id="font_2_107" d="M.44898988 .17396546H.42399598C.4189911 .14398194 .4119873 .099990848 .4019928 .084991458 .394989 .07699585 .32899476 .07699585 .30699159 .07699585H.1269989L.23298645 .17996216C.3889923 .31803895 .44898988 .37210084 .44898988 .47216798 .44898988 .5860901 .35899354 .6660156 .23699951 .6660156 .12399292 .6660156 .049987794 .57411196 .049987794 .48516847 .049987794 .4291687 .099990848 .4291687 .102996829 .4291687 .11999512 .4291687 .15499878 .44117738 .15499878 .48217774 .15499878 .5081787 .13699341 .5341797 .101989749 .5341797 .09399414 .5341797 .09199524 .5341797 .08898926 .5331726 .11199951 .59806826 .1659851 .63500979 .22399903 .63500979 .31498719 .63500979 .35798646 .5541382 .35798646 .47216798 .35798646 .39196778 .30799867 .31297303 .25299073 .25097657L.06098938 .036987306C.049987794 .025985718 .049987794 .023986817 .049987794 0H.42099L.44898988 .17396546Z"/>
<path id="font_2_106" d="M.45700074 .17037964C.45700074 .252594 .3939972 .33088685 .2899933 .35191346 .37199403 .37893678 .42999269 .4490509 .42999269 .52809146 .42999269 .6100464 .34199525 .6660156 .24598694 .6660156 .14498902 .6660156 .068984989 .60606387 .068984989 .53009036 .068984989 .49710084 .09098816 .47808839 .11999512 .47808839 .15098572 .47808839 .17098999 .50009158 .17098999 .5290985 .17098999 .57910159 .12399292 .57910159 .10899353 .57910159 .13999939 .62802127 .20599365 .64100649 .24198914 .64100649 .2829895 .64100649 .33799745 .6190338 .33799745 .5290985 .33799745 .51708987 .33599855 .45906068 .30999757 .4149933 .27999879 .36691285 .24598694 .36390687 .22099304 .36291505 .21299744 .36190797 .18899536 .35990907 .18199158 .35990907 .17399597 .35890199 .16699219 .35791017 .16699219 .3479004 .16699219 .33691407 .17399597 .33691407 .19099427 .33691407H.23498535C.31698609 .33691407 .35398866 .2686615 .35398866 .17037964 .35398866 .034469606 .2849884 .0055389406 .24099732 .0055389406 .19799805 .0055389406 .12298584 .022491456 .08799744 .08137512 .12298584 .07637024 .1539917 .09837341 .1539917 .1363678 .1539917 .17237854 .1269989 .19238281 .09799194 .19238281 .07398987 .19238281 .041992189 .17837525 .041992189 .1343689 .041992189 .043441774 .1349945-.022460938 .24398804-.022460938 .3659973-.022460938 .45700074 .06838989 .45700074 .17037964Z"/>
<path id="font_2_57" d="M.47099305 .16503906V.19602967H.37098695V.6507721C.37098695 .6707611 .37098695 .6767578 .35499574 .6767578 .34599305 .6767578 .34298707 .6767578 .33499146 .6647644L.027999878 .19602967V.16503906H.2939911V.07800293C.2939911 .041992189 .2919922 .0309906 .21798706 .0309906H.19699097V0C.23799134 .0029907227 .2899933 .0029907227 .33198548 .0029907227 .37399293 .0029907227 .4269867 .0029907227 .46798707 0V.0309906H.44699098C.37298585 .0309906 .37098695 .041992189 .37098695 .07800293V.16503906H.47099305M.2999878 .19602967H.055999757L.2999878 .56881716V.19602967Z"/>
<path id="font_1_2" d="M.48599244 .38136292C.48999024 .39537049 .48999024 .39736939 .48999024 .40437318 .48999024 .42237855 .47599793 .43138124 .46099855 .43138124 .45098878 .43138124 .43499757 .42536927 .42599488 .41036988 .42399598 .405365 .41600038 .37435914 .4119873 .35635377 .40499879 .33035279 .397995 .30334474 .3919983 .27633668L.34700013 .09628296C.34298707 .08126831 .2999878 .011245728 .23399353 .011245728 .18299866 .011245728 .17199707 .055267335 .17199707 .0922699 .17199707 .1382904 .18899536 .20030213 .22299195 .28833009 .23899842 .3293457 .24299622 .3403473 .24299622 .36035157 .24299622 .405365 .21099854 .4423828 .16099549 .4423828 .06599426 .4423828 .0289917 .29733277 .0289917 .28833009 .0289917 .27833558 .038986207 .27833558 .040985109 .27833558 .050994874 .27833558 .051986696 .28033448 .056991579 .29634095 .083999637 .3903656 .12399292 .42037965 .1579895 .42037965 .1659851 .42037965 .18299866 .42037965 .18299866 .3883667 .18299866 .36335755 .17298889 .3373413 .1659851 .31834413 .12599182 .21231079 .10798645 .1552887 .10798645 .10827637 .10798645 .019256592 .17098999-.0107421879 .22999573-.0107421879 .2689972-.0107421879 .30299378 .0062561037 .33099366 .03425598 .31799317-.017745972 .30599977-.06674194 .2659912-.11973572 .23999024-.15385437 .20199585-.18309021 .1559906-.18309021 .14199829-.18309021 .09700012-.18005371 .07998657-.14074707 .09599304-.14074707 .10899353-.14074707 .12298584-.1287384 .1329956-.11973572 .14299011-.10673523 .14299011-.08773804 .14299011-.056747438 .115997318-.052734376 .10598755-.052734376 .08299255-.052734376 .049987794-.068740848 .049987794-.11773682 .049987794-.16796875 .09399414-.20507813 .1559906-.20507813 .25898744-.20507813 .3619995-.11373901 .3899994-.00074768069L.48599244 .38136292Z"/>
<path id="font_3_1" d="M.272995 .33428956C.35099793 .33428956 .40699769 .2803192 .40699769 .1733551 .40699769 .04940796 .33499146 .012466431 .2769928 .012466431 .23699951 .012466431 .14898682 .0234375 .10699463 .082351688 .1539917 .084350589 .16499329 .11735535 .16499329 .13835144 .16499329 .17034912 .14099121 .19335938 .10998535 .19335938 .08198547 .19335938 .053985597 .17634583 .053985597 .13534546 .053985597 .041412355 .1579895-.01953125 .2789917-.01953125 .41799928-.01953125 .5139923 .07336426 .5139923 .1733551 .5139923 .2513275 .44999696 .32929994 .33999635 .35229493 .44499208 .39024354 .48298646 .4650879 .48298646 .5260773 .48298646 .60505679 .3919983 .6640625 .2809906 .6640625 .16999817 .6640625 .084991458 .61006167 .084991458 .5300751 .084991458 .49606324 .10699463 .47706605 .13699341 .47706605 .16799927 .47706605 .18798828 .5000763 .18798828 .5280762 .18798828 .5570679 .16799927 .57806399 .13699341 .5800781 .17199707 .62405398 .24099732 .63505557 .27799989 .63505557 .32299806 .63505557 .38598634 .6130676 .38598634 .5260773 .38598634 .48406983 .37199403 .43814088 .34599305 .4072113 .31298829 .36927796 .2849884 .3672943 .23498535 .36428834 .20999146 .3623047 .20799256 .3623047 .20298767 .3612976 .20098877 .3612976 .19299317 .3592987 .19299317 .34829713 .19299317 .33428956 .20199585 .33428956 .21899414 .33428956H.272995Z"/>
<path id="font_4_2" d="M.68699648 .32714845C.70199587 .32714845 .72099307 .32714845 .72099307 .34713746 .72099307 .36714173 .70199587 .36714173 .6879883 .36714173H.08898926C.07499695 .36714173 .055999757 .36714173 .055999757 .34713746 .055999757 .32714845 .07499695 .32714845 .08999634 .32714845H.68699648M.6879883 .13284302C.70199587 .13284302 .72099307 .13284302 .72099307 .15284729 .72099307 .17285156 .70199587 .17285156 .68699648 .17285156H.08999634C.07499695 .17285156 .055999757 .17285156 .055999757 .15284729 .055999757 .13284302 .07499695 .13284302 .08898926 .13284302H.6879883Z"/>
<path id="font_4_1" d="M.45999146 .31976319C.45999146 .39982606 .45498658 .47988893 .41999818 .5539398 .37399293 .65000918 .2919922 .6660156 .25 .6660156 .18998719 .6660156 .116989139 .64001467 .07598877 .54693606 .04399109 .47789 .038986207 .39982606 .038986207 .31976319 .038986207 .24472046 .042999269 .15464783 .083999637 .07859802 .1269989-.0024719239 .19999695-.022460938 .24899292-.022460938 .30299378-.022460938 .3789978-.0014648438 .4229889 .09359741 .45498658 .16265869 .45999146 .2407074 .45999146 .31976319M.24899292-.00047302247C.20999146-.00047302247 .15098572 .024551392 .1329956 .12062073 .12199402 .18066406 .12199402 .2727356 .12199402 .3317871 .12199402 .39582826 .12199402 .46188355 .12998963 .5159149 .14898682 .63500979 .22399903 .64401248 .24899292 .64401248 .28199769 .64401248 .34799195 .6259918 .36698915 .52693179 .3769989 .47088624 .3769989 .39482118 .3769989 .3317871 .3769989 .25672914 .3769989 .18867493 .3659973 .12461853 .35099793 .029556275 .2939911-.00047302247 .24899292-.00047302247Z"/>
<path id="font_3_2" d="M.5289917 .1640625V.20005799H.41799928V.64582827C.41799928 .66682437 .41799928 .6738281 .3959961 .6738281 .38398744 .6738281 .37998963 .6738281 .36999513 .65982058L.038986207 .20005799V.1640625H.33299256V.08201599C.33299256 .04800415 .33299256 .035995485 .2519989 .035995485H.22499085V0C.2749939 .0019989014 .33898927 .0039978029 .375 .0039978029 .4119873 .0039978029 .47599793 .0019989014 .526001 0V.035995485H.49899293C.41799928 .035995485 .41799928 .04800415 .41799928 .08201599V.1640625H.5289917M.33999635 .5658722V.20005799H.07598877L.33999635 .5658722Z"/>
<path id="font_3_3" d="M.15499878 .5588074C.20599365 .5458069 .23599243 .5458069 .2519989 .5458069 .38398744 .5458069 .46199037 .6358032 .46199037 .6508026 .46199037 .6618042 .45498658 .6648102 .44999696 .6648102 .44799806 .6648102 .44599916 .6648102 .44198609 .6618042 .41799928 .6528015 .36499024 .6328125 .29100038 .6328125 .2630005 .6328125 .20999146 .6348114 .14498902 .6598053 .1349945 .6648102 .1329956 .6648102 .13198853 .6648102 .11898804 .6648102 .11898804 .6538086 .11898804 .6378021V.34251405C.11898804 .32548524 .11898804 .3134613 .1349945 .3134613 .14399719 .3134613 .14498902 .3154602 .15499878 .32748414 .19799805 .38259889 .25898744 .390625 .2939911 .390625 .35398866 .390625 .3809967 .34251405 .38598634 .33450318 .4039917 .30143739 .4099884 .26335145 .4099884 .20524597 .4099884 .17524719 .4099884 .116256717 .37998963 .07234192 .35499574 .03640747 .31199647 .012466431 .2630005 .012466431 .19799805 .012466431 .1309967 .04838562 .10598755 .11425781 .14399719 .11125183 .16299439 .13624573 .16299439 .16325379 .16299439 .20625305 .12599182 .21424866 .11299133 .21424866 .11099243 .21424866 .06298828 .21424866 .06298828 .1602478 .06298828 .07034302 .14498902-.01953125 .2649994-.01953125 .3929901-.01953125 .5049896 .07533264 .5049896 .20124817 .5049896 .31445313 .4189911 .41862489 .29499818 .41862489 .25099183 .41862489 .19898987 .4076233 .15499878 .36956788V.5588074Z"/>
</defs>
<path transform="matrix(1.00009,0,0,-1.00003,15.299019,266.7896)" d="M0 0H170.07825L136.06259 45.35419 45.35419 90.70839H0Z" fill="#bfbfbf"/>
<path transform="matrix(1.00009,0,0,-1.00003,15.299019,266.7896)" stroke-width=".3985" stroke-linecap="butt" stroke-miterlimit="10" stroke-linejoin="miter" fill="none" stroke="#000000" d="M-11.33855 0H254.65909"/>
<path transform="matrix(1.00009,0,0,-1.00003,269.98103,266.7896)" stroke-width=".31879" stroke-linecap="round" stroke-linejoin="round" fill="none" stroke="#000000" d="M-1.19551 1.59401C-1.09587 .99626 0 .09961 .29886 0 0-.09961-1.09587-.99626-1.19551-1.59401"/>
<use data-text="x" xlink:href="#font_1_1" transform="matrix(9.963496,0,0,-9.962899,273.9593,263.2695)"/>
<path transform="matrix(1.00009,0,0,-1.00003,15.299019,266.7896)" stroke-width=".3985" stroke-linecap="butt" stroke-miterlimit="10" stroke-linejoin="miter" fill="none" stroke="#000000" d="M28.34636 .59775V-.59775"/>
<use data-text="5" xlink:href="#font_2_56" transform="matrix(9.963496,0,0,-9.962899,41.15735,277.54295)"/>
<path transform="matrix(1.00009,0,0,-1.00003,15.299019,266.7896)" stroke-width=".3985" stroke-linecap="butt" stroke-miterlimit="10" stroke-linejoin="miter" fill="none" stroke="#000000" d="M56.69275 .59775V-.59775"/>
<use data-text="1" xlink:href="#font_2_82" transform="matrix(9.963496,0,0,-9.962899,67.01467,277.54295)"/>
<use data-text="0" xlink:href="#font_2_121" transform="matrix(9.963496,0,0,-9.962899,71.99642,277.54295)"/>
<path transform="matrix(1.00009,0,0,-1.00003,15.299019,266.7896)" stroke-width=".3985" stroke-linecap="butt" stroke-miterlimit="10" stroke-linejoin="miter" fill="none" stroke="#000000" d="M85.03911 .59775V-.59775"/>
<use data-text="1" xlink:href="#font_2_82" transform="matrix(9.963496,0,0,-9.962899,95.36422,277.54295)"/>
<use data-text="5" xlink:href="#font_2_56" transform="matrix(9.963496,0,0,-9.962899,100.34597,277.54295)"/>
<path transform="matrix(1.00009,0,0,-1.00003,15.299019,266.7896)" stroke-width=".3985" stroke-linecap="butt" stroke-miterlimit="10" stroke-linejoin="miter" fill="none" stroke="#000000" d="M113.3855 .59775V-.59775"/>
<use data-text="2" xlink:href="#font_2_107" transform="matrix(9.963496,0,0,-9.962899,123.712779,277.54295)"/>
<use data-text="0" xlink:href="#font_2_121" transform="matrix(9.963496,0,0,-9.962899,128.69452,277.54295)"/>
<path transform="matrix(1.00009,0,0,-1.00003,15.299019,266.7896)" stroke-width=".3985" stroke-linecap="butt" stroke-miterlimit="10" stroke-linejoin="miter" fill="none" stroke="#000000" d="M141.73188 .59775V-.59775"/>
<use data-text="2" xlink:href="#font_2_107" transform="matrix(9.963496,0,0,-9.962899,152.06134,277.54295)"/>
<use data-text="5" xlink:href="#font_2_56" transform="matrix(9.963496,0,0,-9.962899,157.04309,277.54295)"/>
<path transform="matrix(1.00009,0,0,-1.00003,15.299019,266.7896)" stroke-width=".3985" stroke-linecap="butt" stroke-miterlimit="10" stroke-linejoin="miter" fill="none" stroke="#000000" d="M170.07825 .59775V-.59775"/>
<use data-text="3" xlink:href="#font_2_106" transform="matrix(9.963496,0,0,-9.962899,180.41089,277.54295)"/>
<use data-text="0" xlink:href="#font_2_121" transform="matrix(9.963496,0,0,-9.962899,185.39264,277.54295)"/>
<path transform="matrix(1.00009,0,0,-1.00003,15.299019,266.7896)" stroke-width=".3985" stroke-linecap="butt" stroke-miterlimit="10" stroke-linejoin="miter" fill="none" stroke="#000000" d="M198.42462 .59775V-.59775"/>
<use data-text="3" xlink:href="#font_2_106" transform="matrix(9.963496,0,0,-9.962899,208.75943,277.54295)"/>
<use data-text="5" xlink:href="#font_2_56" transform="matrix(9.963496,0,0,-9.962899,213.74118,277.54295)"/>
<path transform="matrix(1.00009,0,0,-1.00003,15.299019,266.7896)" stroke-width=".3985" stroke-linecap="butt" stroke-miterlimit="10" stroke-linejoin="miter" fill="none" stroke="#000000" d="M226.77101 .59775V-.59775"/>
<use data-text="4" xlink:href="#font_2_57" transform="matrix(9.963496,0,0,-9.962899,237.10898,277.65196)"/>
<use data-text="0" xlink:href="#font_2_121" transform="matrix(9.963496,0,0,-9.962899,242.09073,277.65196)"/>
<path transform="matrix(1.00009,0,0,-1.00003,15.299019,266.7896)" stroke-width=".3985" stroke-linecap="butt" stroke-miterlimit="10" stroke-linejoin="miter" fill="none" stroke="#000000" d="M0-11.33855V254.65909"/>
<path transform="matrix(0,-1.00003,-1.00009,-0,15.299019,12.122879)" stroke-width=".31879" stroke-linecap="round" stroke-linejoin="round" fill="none" stroke="#000000" d="M-1.19551 1.59401C-1.09587 .99626 0 .09961 .29886 0 0-.09961-1.09587-.99626-1.19551-1.59401"/>
<use data-text="y" xlink:href="#font_1_2" transform="matrix(9.963496,0,0,-9.962899,18.819336,6.2077639)"/>
<path transform="matrix(1.00009,0,0,-1.00003,15.299019,266.7896)" stroke-width=".3985" stroke-linecap="butt" stroke-miterlimit="10" stroke-linejoin="miter" fill="none" stroke="#000000" d="M.59775 28.34636H-.59775"/>
<use data-text="5" xlink:href="#font_2_56" transform="matrix(9.963496,0,0,-9.962899,6.199196,241.65085)"/>
<path transform="matrix(1.00009,0,0,-1.00003,15.299019,266.7896)" stroke-width=".3985" stroke-linecap="butt" stroke-miterlimit="10" stroke-linejoin="miter" fill="none" stroke="#000000" d="M.59775 56.69275H-.59775"/>
<use data-text="1" xlink:href="#font_2_82" transform="matrix(9.963496,0,0,-9.962899,1.2177506,213.30301)"/>
<use data-text="0" xlink:href="#font_2_121" transform="matrix(9.963496,0,0,-9.962899,6.199501,213.30301)"/>
<path transform="matrix(1.00009,0,0,-1.00003,15.299019,266.7896)" stroke-width=".3985" stroke-linecap="butt" stroke-miterlimit="10" stroke-linejoin="miter" fill="none" stroke="#000000" d="M.59775 85.03911H-.59775"/>
<use data-text="1" xlink:href="#font_2_82" transform="matrix(9.963496,0,0,-9.962899,1.2177506,184.95615)"/>
<use data-text="5" xlink:href="#font_2_56" transform="matrix(9.963496,0,0,-9.962899,6.199501,184.95615)"/>
<path transform="matrix(1.00009,0,0,-1.00003,15.299019,266.7896)" stroke-width=".3985" stroke-linecap="butt" stroke-miterlimit="10" stroke-linejoin="miter" fill="none" stroke="#000000" d="M.59775 113.3855H-.59775"/>
<use data-text="2" xlink:href="#font_2_107" transform="matrix(9.963496,0,0,-9.962899,1.2177506,156.6093)"/>
<use data-text="0" xlink:href="#font_2_121" transform="matrix(9.963496,0,0,-9.962899,6.199501,156.6093)"/>
<path transform="matrix(1.00009,0,0,-1.00003,15.299019,266.7896)" stroke-width=".3985" stroke-linecap="butt" stroke-miterlimit="10" stroke-linejoin="miter" fill="none" stroke="#000000" d="M.59775 141.73188H-.59775"/>
<use data-text="2" xlink:href="#font_2_107" transform="matrix(9.963496,0,0,-9.962899,1.2177506,128.26145)"/>
<use data-text="5" xlink:href="#font_2_56" transform="matrix(9.963496,0,0,-9.962899,6.199501,128.26145)"/>
<path transform="matrix(1.00009,0,0,-1.00003,15.299019,266.7896)" stroke-width=".3985" stroke-linecap="butt" stroke-miterlimit="10" stroke-linejoin="miter" fill="none" stroke="#000000" d="M.59775 170.07825H-.59775"/>
<use data-text="3" xlink:href="#font_2_106" transform="matrix(9.963496,0,0,-9.962899,1.2177506,99.9146)"/>
<use data-text="0" xlink:href="#font_2_121" transform="matrix(9.963496,0,0,-9.962899,6.199501,99.9146)"/>
<path transform="matrix(1.00009,0,0,-1.00003,15.299019,266.7896)" stroke-width=".3985" stroke-linecap="butt" stroke-miterlimit="10" stroke-linejoin="miter" fill="none" stroke="#000000" d="M.59775 198.42462H-.59775"/>
<use data-text="3" xlink:href="#font_2_106" transform="matrix(9.963496,0,0,-9.962899,1.2177506,71.56676)"/>
<use data-text="5" xlink:href="#font_2_56" transform="matrix(9.963496,0,0,-9.962899,6.199501,71.56676)"/>
<path transform="matrix(1.00009,0,0,-1.00003,15.299019,266.7896)" stroke-width=".3985" stroke-linecap="butt" stroke-miterlimit="10" stroke-linejoin="miter" fill="none" stroke="#000000" d="M.59775 226.77101H-.59775"/>
<use data-text="4" xlink:href="#font_2_57" transform="matrix(9.963496,0,0,-9.962899,1.2177506,43.274904)"/>
<use data-text="0" xlink:href="#font_2_121" transform="matrix(9.963496,0,0,-9.962899,6.199501,43.274904)"/>
<path transform="matrix(1.00009,0,0,-1.00003,15.299019,266.7896)" stroke-width=".3985" stroke-linecap="butt" stroke-miterlimit="10" stroke-linejoin="miter" fill="none" stroke="#000000" d="M.59775 255.11737H-.59775"/>
<use data-text="4" xlink:href="#font_2_57" transform="matrix(9.963496,0,0,-9.962899,1.2177506,14.927048)"/>
<use data-text="5" xlink:href="#font_2_56" transform="matrix(9.963496,0,0,-9.962899,6.199501,14.927048)"/>
<path transform="matrix(1.00009,0,0,-1.00003,15.299019,266.7896)" stroke-width=".79701" stroke-linecap="butt" stroke-miterlimit="10" stroke-linejoin="miter" fill="none" stroke="#000000" d="M-10.91412 241.32315 180.99239-14.55214"/>
<path transform="matrix(-.600044,-.799994,-.800042,.600008,4.383917,25.459214)" stroke-width=".6376" stroke-linecap="round" stroke-linejoin="round" fill="none" stroke="#000000" d="M-1.55415 2.0722C-1.42464 1.29512 0 .1295 .38852 0 0-.1295-1.42464-1.29512-1.55415-2.0722"/>
<path transform="matrix(.600044,.799994,.800042,-.600008,196.30771,281.3422)" stroke-width=".6376" stroke-linecap="round" stroke-linejoin="round" fill="none" stroke="#000000" d="M-1.55415 2.0722C-1.42464 1.29512 0 .1295 .38852 0 0-.1295-1.42464-1.29512-1.55415-2.0722"/>
<path transform="matrix(1.00009,0,0,-1.00003,15.299019,266.7896)" stroke-width=".79701" stroke-linecap="butt" stroke-miterlimit="10" stroke-linejoin="miter" fill="none" stroke="#000000" d="M-10.7059 118.73846 254.48474-13.85687"/>
<path transform="matrix(-.8944405,-.44718344,-.44721023,.8943869,4.592166,148.04759)" stroke-width=".6376" stroke-linecap="round" stroke-linejoin="round" fill="none" stroke="#000000" d="M-1.55415 2.0722C-1.42464 1.29512 0 .1295 .38852 0 0-.1295-1.42464-1.29512-1.55415-2.0722"/>
<path transform="matrix(.8944405,.44718344,.44721023,-.8943869,269.80665,280.64689)" stroke-width=".6376" stroke-linecap="round" stroke-linejoin="round" fill="none" stroke="#000000" d="M-1.55415 2.0722C-1.42464 1.29512 0 .1295 .38852 0 0-.1295-1.42464-1.29512-1.55415-2.0722"/>
<path transform="matrix(1.00009,0,0,-1.00003,15.299019,266.7896)" stroke-width=".79701" stroke-linecap="butt" stroke-miterlimit="10" stroke-linejoin="miter" fill="none" stroke="#000000" d="M-10.63118 90.70839H254.41"/>
<path transform="matrix(-1.00009,-0,0,1.00003,4.6668827,176.07849)" stroke-width=".6376" stroke-linecap="round" stroke-linejoin="round" fill="none" stroke="#000000" d="M-1.55415 2.0722C-1.42464 1.29512 0 .1295 .38852 0 0-.1295-1.42464-1.29512-1.55415-2.0722"/>
<path transform="matrix(1.00009,0,0,-1.00003,269.73194,176.07849)" stroke-width=".6376" stroke-linecap="round" stroke-linejoin="round" fill="none" stroke="#000000" d="M-1.55415 2.0722C-1.42464 1.29512 0 .1295 .38852 0 0-.1295-1.42464-1.29512-1.55415-2.0722"/>
<path transform="matrix(1.00009,0,0,-1.00003,15.299019,266.7896)" d="M47.34671 90.70839C47.34671 91.80882 46.45462 92.70091 45.35419 92.70091 44.25374 92.70091 43.36166 91.80882 43.36166 90.70839 43.36166 89.60794 44.25374 88.71587 45.35419 88.71587 46.45462 88.71587 47.34671 89.60794 47.34671 90.70839ZM45.35419 90.70839"/>
<path transform="matrix(1.00009,0,0,-1.00003,15.299019,266.7896)" d="M104.03946 90.70839C104.03946 91.80882 103.14737 92.70091 102.04694 92.70091 100.9465 92.70091 100.05441 91.80882 100.05441 90.70839 100.05441 89.60794 100.9465 88.71587 102.04694 88.71587 103.14737 88.71587 104.03946 89.60794 104.03946 90.70839ZM102.04694 90.70839"/>
<path transform="matrix(1.00009,0,0,-1.00003,15.299019,266.7896)" d="M138.05512 45.35419C138.05512 46.45462 137.16304 47.34671 136.06259 47.34671 134.96216 47.34671 134.07007 46.45462 134.07007 45.35419 134.07007 44.25374 134.96216 43.36166 136.06259 43.36166 137.16304 43.36166 138.05512 44.25374 138.05512 45.35419ZM136.06259 45.35419"/>
<path transform="matrix(1.00009,0,0,-1.00003,15.299019,266.7896)" stroke-width=".3985" stroke-linecap="butt" stroke-miterlimit="10" stroke-linejoin="miter" fill="none" stroke="#000000" d="M56.69275 170.07825"/>
<use data-text="x" xlink:href="#font_1_1" transform="matrix(9.963496,0,0,-9.962899,75.51744,99.16957)"/>
<use data-text="3" xlink:href="#font_3_1" transform="matrix(6.9744279,0,0,-6.9740097,81.21195,100.66362)"/>
<use data-text="=" xlink:href="#font_4_2" transform="matrix(9.963496,0,0,-9.962899,88.44961,99.16957)"/>
<use data-text="0" xlink:href="#font_4_1" transform="matrix(9.963496,0,0,-9.962899,98.95113,99.16957)"/>
<path transform="matrix(1.00009,0,0,-1.00003,15.299019,266.7896)" stroke-width=".3985" stroke-linecap="butt" stroke-miterlimit="10" stroke-linejoin="miter" fill="none" stroke="#000000" d="M170.07825 34.01564"/>
<use data-text="x" xlink:href="#font_1_1" transform="matrix(9.963496,0,0,-9.962899,188.91266,235.23566)"/>
<use data-text="4" xlink:href="#font_3_2" transform="matrix(6.9744279,0,0,-6.9740097,194.60717,236.7297)"/>
<use data-text="=" xlink:href="#font_4_2" transform="matrix(9.963496,0,0,-9.962899,201.84482,235.23566)"/>
<use data-text="0" xlink:href="#font_4_1" transform="matrix(9.963496,0,0,-9.962899,212.34635,235.23566)"/>
<path transform="matrix(1.00009,0,0,-1.00003,15.299019,266.7896)" stroke-width=".3985" stroke-linecap="butt" stroke-miterlimit="10" stroke-linejoin="miter" fill="none" stroke="#000000" d="M170.07825 90.70839"/>
<use data-text="x" xlink:href="#font_1_1" transform="matrix(9.963496,0,0,-9.962899,171.17704,171.06374)"/>
<use data-text="5" xlink:href="#font_3_3" transform="matrix(6.9744279,0,0,-6.9740097,176.87155,172.55779)"/>
<use data-text="=" xlink:href="#font_4_2" transform="matrix(9.963496,0,0,-9.962899,184.1092,171.06374)"/>
<use data-text="0" xlink:href="#font_4_1" transform="matrix(9.963496,0,0,-9.962899,194.61074,171.06374)"/>
</svg>
