<svg xmlns="http://www.w3.org/2000/svg" xmlns:xlink="http://www.w3.org/1999/xlink" xmlns:inkscape="http://www.inkscape.org/namespaces/inkscape" version="1.1" width="285" height="283" viewBox="0 0 285 283">
<defs>
<path id="font_1_1" d="M.33399964 .30233766C.33999635 .32835389 .36299134 .42037965 .43299867 .42037965 .43798829 .42037965 .46199037 .42037965 .48298646 .40734864 .45498658 .402359 .43499757 .37734986 .43499757 .35334779 .43499757 .33735658 .44599916 .31835938 .47299195 .31835938 .49499513 .31835938 .5269928 .3363495 .5269928 .37635804 .5269928 .42837525 .46798707 .4423828 .43399049 .4423828 .37599183 .4423828 .34098817 .38935853 .32899476 .36634828 .3039856 .43237306 .25 .4423828 .22099304 .4423828 .116989139 .4423828 .05999756 .3133545 .05999756 .28834535 .05999756 .27833558 .069992069 .27833558 .07199097 .27833558 .07998657 .27833558 .08299255 .28033448 .084991458 .28933717 .11898804 .39535523 .18499756 .42037965 .21899414 .42037965 .23799134 .42037965 .272995 .4113617 .272995 .35334779 .272995 .32235719 .2559967 .25532533 .21899414 .11528015 .20298767 .053268434 .16799927 .011245728 .12399292 .011245728 .117996219 .011245728 .09498596 .011245728 .07398987 .024276734 .09899902 .029266358 .12098694 .05027771 .12098694 .07827759 .12098694 .105270389 .09899902 .11328125 .083999637 .11328125 .053985597 .11328125 .0289917 .08728027 .0289917 .055267335 .0289917 .009246826 .07899475-.0107421879 .12298584-.0107421879 .18899536-.0107421879 .22499085 .059280397 .22799683 .0652771 .23999024 .028274537 .27598573-.0107421879 .33599855-.0107421879 .43899537-.0107421879 .49598695 .118270877 .49598695 .14328003 .49598695 .1532898 .4869995 .1532898 .48399354 .1532898 .47499085 .1532898 .47299195 .14929199 .47099305 .14228821 .43798829 .03527832 .36999513 .011245728 .33799745 .011245728 .29899598 .011245728 .2829895 .043273927 .2829895 .07727051 .2829895 .09927368 .2889862 .121276859 .2999878 .16529846L.33399964 .30233766Z"/>
<path id="font_2_1" d="M.33499146 .63612368C.33499146 .6630554 .33299256 .6640625 .30499269 .6640625 .24099732 .6014404 .1499939 .6004486 .10899353 .6004486V.5644531C.1329956 .5644531 .19898987 .5644531 .2539978 .592453V.08203125C.2539978 .04899597 .2539978 .035995485 .1539917 .035995485H.115997318V0C.13398743 .0009918213 .25698854 .0039978029 .2939911 .0039978029 .32499696 .0039978029 .45098878 .0009918213 .47299195 0V.035995485H.43499757C.33499146 .035995485 .33499146 .04899597 .33499146 .08203125V.63612368Z"/>
<path id="font_3_56" d="M.44898988 .20091248C.44898988 .31991578 .36698915 .41992188 .25898744 .41992188 .21099854 .41992188 .16799927 .4039154 .13198853 .36891175V.5641022C.1519928 .55778506 .18499756 .55078127 .21699524 .55078127 .33999635 .55078127 .4099884 .6418457 .4099884 .65493777 .4099884 .6609802 .40699769 .6660156 .3999939 .6660156 .3999939 .66607668 .39698792 .66607668 .3919983 .66308596 .37199403 .65408328 .32299806 .63378909 .2559967 .63378909 .21598816 .63409426 .16999817 .641098 .12298584 .6621094 .114990238 .6651001 .11099243 .6651001 .11099243 .6651001 .100997928 .66508486 .100997928 .657074 .100997928 .64108279V.3447113C.100997928 .3266449 .100997928 .31861878 .114990238 .31861878 .12199402 .31861878 .12399292 .32164 .12799073 .32765199 .13899231 .34371949 .17599488 .3979187 .25698854 .3979187 .30899049 .3979187 .33399964 .3517456 .34199525 .3336792 .35798646 .2965393 .3600006 .2574005 .3600006 .20721436 .3600006 .17218018 .3600006 .112197879 .33599855 .07032776 .31199647 .031448366 .2749939 .0055389406 .22898865 .0055389406 .1559906 .0055389406 .09899902 .05836487 .08198547 .1171875 .084991458 .11685181 .08799744 .115859989 .09899902 .115859989 .13198853 .115859989 .14898682 .14085388 .14898682 .16485596 .14898682 .18885803 .13198853 .21386719 .09899902 .21386719 .084991458 .21386719 .049987794 .2068634 .049987794 .16085816 .049987794 .07432556 .11898804-.022460938 .23098755-.022460938 .34700013-.022460938 .44898988 .07331848 .44898988 .20019531V.20091248Z"/>
<path id="font_3_82" d="M.4189911 0V.0309906H.3869934C.29699708 .0309906 .2939911 .041992189 .2939911 .07902527V.64012148C.2939911 .6640167 .2939911 .6660156 .2709961 .6660156 .20899964 .60227969 .12098694 .60227969 .08898926 .60227969V.57128909C.10899353 .57128909 .16799927 .57128909 .21998596 .5972748V.07902527C.21998596 .042999269 .21699524 .0309906 .1269989 .0309906H.09498596V0C.12998963 .0029907227 .21699524 .0029907227 .25698854 .0029907227 .29699708 .0029907227 .38398744 .0029907227 .4189911 0Z"/>
<path id="font_3_121" d="M.45999146 .31976319C.45999146 .39982606 .45498658 .47988893 .41999818 .5539398 .37399293 .65000918 .2919922 .6660156 .25 .6660156 .18998719 .6660156 .116989139 .64001467 .07598877 .54693606 .04399109 .47789 .038986207 .39982606 .038986207 .31976319 .038986207 .24472046 .042999269 .15464783 .083999637 .07859802 .1269989-.0024719239 .19999695-.022460938 .24899292-.022460938 .30299378-.022460938 .3789978-.0014648438 .4229889 .09359741 .45498658 .16265869 .45999146 .2407074 .45999146 .31976319M.3769989 .3317871C.3769989 .25672914 .3769989 .18867493 .3659973 .12461853 .35099793 .029556275 .2939911-.00047302247 .24899292-.00047302247 .20999146-.00047302247 .15098572 .024551392 .1329956 .12062073 .12199402 .18066406 .12199402 .2727356 .12199402 .3317871 .12199402 .39582826 .12199402 .46188355 .12998963 .5159149 .14898682 .63500979 .22399903 .64401248 .24899292 .64401248 .28199769 .64401248 .34799195 .6259918 .36698915 .52693179 .3769989 .47088624 .3769989 .39482118 .3769989 .3317871Z"/>
<path id="font_3_107" d="M.44898988 .17396546H.42399598C.4189911 .14398194 .4119873 .099990848 .4019928 .084991458 .394989 .07699585 .32899476 .07699585 .30699159 .07699585H.1269989L.23298645 .17996216C.3889923 .31803895 .44898988 .37210084 .44898988 .47216798 .44898988 .5860901 .35899354 .6660156 .23699951 .6660156 .12399292 .6660156 .049987794 .57411196 .049987794 .48516847 .049987794 .4291687 .099990848 .4291687 .102996829 .4291687 .11999512 .4291687 .15499878 .44117738 .15499878 .48217774 .15499878 .5081787 .13699341 .5341797 .101989749 .5341797 .09399414 .5341797 .09199524 .5341797 .08898926 .5331726 .11199951 .59806826 .1659851 .63500979 .22399903 .63500979 .31498719 .63500979 .35798646 .5541382 .35798646 .47216798 .35798646 .39196778 .30799867 .31297303 .25299073 .25097657L.06098938 .036987306C.049987794 .025985718 .049987794 .023986817 .049987794 0H.42099L.44898988 .17396546Z"/>
<path id="font_3_106" d="M.45700074 .17037964C.45700074 .252594 .3939972 .33088685 .2899933 .35191346 .37199403 .37893678 .42999269 .4490509 .42999269 .52809146 .42999269 .6100464 .34199525 .6660156 .24598694 .6660156 .14498902 .6660156 .068984989 .60606387 .068984989 .53009036 .068984989 .49710084 .09098816 .47808839 .11999512 .47808839 .15098572 .47808839 .17098999 .50009158 .17098999 .5290985 .17098999 .57910159 .12399292 .57910159 .10899353 .57910159 .13999939 .62802127 .20599365 .64100649 .24198914 .64100649 .2829895 .64100649 .33799745 .6190338 .33799745 .5290985 .33799745 .51708987 .33599855 .45906068 .30999757 .4149933 .27999879 .36691285 .24598694 .36390687 .22099304 .36291505 .21299744 .36190797 .18899536 .35990907 .18199158 .35990907 .17399597 .35890199 .16699219 .35791017 .16699219 .3479004 .16699219 .33691407 .17399597 .33691407 .19099427 .33691407H.23498535C.31698609 .33691407 .35398866 .2686615 .35398866 .17037964 .35398866 .034469606 .2849884 .0055389406 .24099732 .0055389406 .19799805 .0055389406 .12298584 .022491456 .08799744 .08137512 .12298584 .07637024 .1539917 .09837341 .1539917 .1363678 .1539917 .17237854 .1269989 .19238281 .09799194 .19238281 .07398987 .19238281 .041992189 .17837525 .041992189 .1343689 .041992189 .043441774 .1349945-.022460938 .24398804-.022460938 .3659973-.022460938 .45700074 .06838989 .45700074 .17037964Z"/>
<path id="font_3_57" d="M.47099305 .16503906V.19602967H.37098695V.6507721C.37098695 .6707611 .37098695 .6767578 .35499574 .6767578 .34599305 .6767578 .34298707 .6767578 .33499146 .6647644L.027999878 .19602967V.16503906H.2939911V.07800293C.2939911 .041992189 .2919922 .0309906 .21798706 .0309906H.19699097V0C.23799134 .0029907227 .2899933 .0029907227 .33198548 .0029907227 .37399293 .0029907227 .4269867 .0029907227 .46798707 0V.0309906H.44699098C.37298585 .0309906 .37098695 .041992189 .37098695 .07800293V.16503906H.47099305M.2999878 .19602967H.055999757L.2999878 .56881716V.19602967Z"/>
<path id="font_2_2" d="M.5049896 .18203736H.47099305C.46798707 .16001892 .45799256 .100997928 .44499208 .09098816 .43699647 .084991458 .3600006 .084991458 .34599305 .084991458H.1619873C.2669983 .17803955 .3019867 .20603943 .3619995 .25306703 .43598939 .312088 .5049896 .374115 .5049896 .46914674 .5049896 .5900879 .39898683 .6640625 .2709961 .6640625 .14698792 .6640625 .06298828 .57710269 .06298828 .4851532 .06298828 .43414308 .10598755 .42915345 .115997318 .42915345 .13999939 .42915345 .16899109 .44615174 .16899109 .48214723 .16899109 .5001526 .1619873 .53515627 .10998535 .53515627 .14099121 .6060791 .20899964 .62805178 .2559967 .62805178 .35598756 .62805178 .4079895 .5501404 .4079895 .46914674 .4079895 .38212586 .34599305 .3130951 .31399537 .27708436L.07299805 .038986207C.06298828 .02999878 .06298828 .027999878 .06298828 0H.47499085L.5049896 .18203736Z"/>
<path id="font_2_3" d="M.272995 .33428956C.35099793 .33428956 .40699769 .2803192 .40699769 .1733551 .40699769 .04940796 .33499146 .012466431 .2769928 .012466431 .23699951 .012466431 .14898682 .0234375 .10699463 .082351688 .1539917 .084350589 .16499329 .11735535 .16499329 .13835144 .16499329 .17034912 .14099121 .19335938 .10998535 .19335938 .08198547 .19335938 .053985597 .17634583 .053985597 .13534546 .053985597 .041412355 .1579895-.01953125 .2789917-.01953125 .41799928-.01953125 .5139923 .07336426 .5139923 .1733551 .5139923 .2513275 .44999696 .32929994 .33999635 .35229493 .44499208 .39024354 .48298646 .4650879 .48298646 .5260773 .48298646 .60505679 .3919983 .6640625 .2809906 .6640625 .16999817 .6640625 .084991458 .61006167 .084991458 .5300751 .084991458 .49606324 .10699463 .47706605 .13699341 .47706605 .16799927 .47706605 .18798828 .5000763 .18798828 .5280762 .18798828 .5570679 .16799927 .57806399 .13699341 .5800781 .17199707 .62405398 .24099732 .63505557 .27799989 .63505557 .32299806 .63505557 .38598634 .6130676 .38598634 .5260773 .38598634 .48406983 .37199403 .43814088 .34599305 .4072113 .31298829 .36927796 .2849884 .3672943 .23498535 .36428834 .20999146 .3623047 .20799256 .3623047 .20298767 .3612976 .20098877 .3612976 .19299317 .3592987 .19299317 .34829713 .19299317 .33428956 .20199585 .33428956 .21899414 .33428956H.272995Z"/>
<path id="font_4_2" d="M.68699648 .32714845C.70199587 .32714845 .72099307 .32714845 .72099307 .34713746 .72099307 .36714173 .70199587 .36714173 .6879883 .36714173H.08898926C.07499695 .36714173 .055999757 .36714173 .055999757 .34713746 .055999757 .32714845 .07499695 .32714845 .08999634 .32714845H.68699648M.6879883 .13284302C.70199587 .13284302 .72099307 .13284302 .72099307 .15284729 .72099307 .17285156 .70199587 .17285156 .68699648 .17285156H.08999634C.07499695 .17285156 .055999757 .17285156 .055999757 .15284729 .055999757 .13284302 .07499695 .13284302 .08898926 .13284302H.6879883Z"/>
<path id="font_4_1" d="M.45999146 .31976319C.45999146 .39982606 .45498658 .47988893 .41999818 .5539398 .37399293 .65000918 .2919922 .6660156 .25 .6660156 .18998719 .6660156 .116989139 .64001467 .07598877 .54693606 .04399109 .47789 .038986207 .39982606 .038986207 .31976319 .038986207 .24472046 .042999269 .15464783 .083999637 .07859802 .1269989-.0024719239 .19999695-.022460938 .24899292-.022460938 .30299378-.022460938 .3789978-.0014648438 .4229889 .09359741 .45498658 .16265869 .45999146 .2407074 .45999146 .31976319M.24899292-.00047302247C.20999146-.00047302247 .15098572 .024551392 .1329956 .12062073 .12199402 .18066406 .12199402 .2727356 .12199402 .3317871 .12199402 .39582826 .12199402 .46188355 .12998963 .5159149 .14898682 .63500979 .22399903 .64401248 .24899292 .64401248 .28199769 .64401248 .34799195 .6259918 .36698915 .52693179 .3769989 .47088624 .3769989 .39482118 .3769989 .3317871 .3769989 .25672914 .3769989 .18867493 .3659973 .12461853 .35099793 .029556275 .2939911-.00047302247 .24899292-.00047302247Z"/>
<path id="font_2_4" d="M.5289917 .1640625V.20005799H.41799928V.64582827C.41799928 .66682437 .41799928 .6738281 .3959961 .6738281 .38398744 .6738281 .37998963 .6738281 .36999513 .65982058L.038986207 .20005799V.1640625H.33299256V.08201599C.33299256 .04800415 .33299256 .035995485 .2519989 .035995485H.22499085V0C.2749939 .0019989014 .33898927 .0039978029 .375 .0039978029 .4119873 .0039978029 .47599793 .0019989014 .526001 0V.035995485H.49899293C.41799928 .035995485 .41799928 .04800415 .41799928 .08201599V.1640625H.5289917M.33999635 .5658722V.20005799H.07598877L.33999635 .5658722Z"/>
<path id="font_2_5" d="M.15499878 .5588074C.20599365 .5458069 .23599243 .5458069 .2519989 .5458069 .38398744 .5458069 .46199037 .6358032 .46199037 .6508026 .46199037 .6618042 .45498658 .6648102 .44999696 .6648102 .44799806 .6648102 .44599916 .6648102 .44198609 .6618042 .41799928 .6528015 .36499024 .6328125 .29100038 .6328125 .2630005 .6328125 .20999146 .6348114 .14498902 .6598053 .1349945 .6648102 .1329956 .6648102 .13198853 .6648102 .11898804 .6648102 .11898804 .6538086 .11898804 .6378021V.34251405C.11898804 .32548524 .11898804 .3134613 .1349945 .3134613 .14399719 .3134613 .14498902 .3154602 .15499878 .32748414 .19799805 .38259889 .25898744 .390625 .2939911 .390625 .35398866 .390625 .3809967 .34251405 .38598634 .33450318 .4039917 .30143739 .4099884 .26335145 .4099884 .20524597 .4099884 .17524719 .4099884 .116256717 .37998963 .07234192 .35499574 .03640747 .31199647 .012466431 .2630005 .012466431 .19799805 .012466431 .1309967 .04838562 .10598755 .11425781 .14399719 .11125183 .16299439 .13624573 .16299439 .16325379 .16299439 .20625305 .12599182 .21424866 .11299133 .21424866 .11099243 .21424866 .06298828 .21424866 .06298828 .1602478 .06298828 .07034302 .14498902-.01953125 .2649994-.01953125 .3929901-.01953125 .5049896 .07533264 .5049896 .20124817 .5049896 .31445313 .4189911 .41862489 .29499818 .41862489 .25099183 .41862489 .19898987 .4076233 .15499878 .36956788V.5588074Z"/>
</defs>
<path transform="matrix(1.00005,0,0,-1,15.298012,266.338)" d="M0 0H170.07825L136.06259 45.35419 45.35419 90.70839H0Z" fill="#bfbfbf"/>
<path transform="matrix(1.00005,0,0,-1,15.298012,266.338)" stroke-width=".3985" stroke-linecap="butt" stroke-miterlimit="10" stroke-linejoin="miter" fill="none" stroke="#000000" d="M-11.33855 0H254.65909"/>
<path transform="matrix(1.00005,0,0,-1,269.96983,266.338)" stroke-width=".31879" stroke-linecap="round" stroke-linejoin="round" fill="none" stroke="#000000" d="M-1.19551 1.59401C-1.09587 .99626 0 .09961 .29886 0 0-.09961-1.09587-.99626-1.19551-1.59401"/>
<use data-text="x" xlink:href="#font_1_1" transform="matrix(9.963098,0,0,-9.9626,273.9479,261.324)"/>
<use data-text="1" xlink:href="#font_2_1" transform="matrix(6.9741489,0,0,-6.9738,279.6422,262.819)"/>
<path transform="matrix(1.00005,0,0,-1,15.298012,266.338)" stroke-width=".3985" stroke-linecap="butt" stroke-miterlimit="10" stroke-linejoin="miter" fill="none" stroke="#000000" d="M28.34636 .59775V-.59775"/>
<use data-text="5" xlink:href="#font_3_56" transform="matrix(9.963098,0,0,-9.9626,41.155305,277.091)"/>
<path transform="matrix(1.00005,0,0,-1,15.298012,266.338)" stroke-width=".3985" stroke-linecap="butt" stroke-miterlimit="10" stroke-linejoin="miter" fill="none" stroke="#000000" d="M56.69275 .59775V-.59775"/>
<use data-text="1" xlink:href="#font_3_82" transform="matrix(9.963098,0,0,-9.9626,67.0116,277.091)"/>
<use data-text="0" xlink:href="#font_3_121" transform="matrix(9.963098,0,0,-9.9626,71.99313,277.091)"/>
<path transform="matrix(1.00005,0,0,-1,15.298012,266.338)" stroke-width=".3985" stroke-linecap="butt" stroke-miterlimit="10" stroke-linejoin="miter" fill="none" stroke="#000000" d="M85.03911 .59775V-.59775"/>
<use data-text="1" xlink:href="#font_3_82" transform="matrix(9.963098,0,0,-9.9626,95.36001,277.091)"/>
<use data-text="5" xlink:href="#font_3_56" transform="matrix(9.963098,0,0,-9.9626,100.34155,277.091)"/>
<path transform="matrix(1.00005,0,0,-1,15.298012,266.338)" stroke-width=".3985" stroke-linecap="butt" stroke-miterlimit="10" stroke-linejoin="miter" fill="none" stroke="#000000" d="M113.3855 .59775V-.59775"/>
<use data-text="2" xlink:href="#font_3_107" transform="matrix(9.963098,0,0,-9.9626,123.70743,277.091)"/>
<use data-text="0" xlink:href="#font_3_121" transform="matrix(9.963098,0,0,-9.9626,128.68897,277.091)"/>
<path transform="matrix(1.00005,0,0,-1,15.298012,266.338)" stroke-width=".3985" stroke-linecap="butt" stroke-miterlimit="10" stroke-linejoin="miter" fill="none" stroke="#000000" d="M141.73188 .59775V-.59775"/>
<use data-text="2" xlink:href="#font_3_107" transform="matrix(9.963098,0,0,-9.9626,152.05484,277.091)"/>
<use data-text="5" xlink:href="#font_3_56" transform="matrix(9.963098,0,0,-9.9626,157.03639,277.091)"/>
<path transform="matrix(1.00005,0,0,-1,15.298012,266.338)" stroke-width=".3985" stroke-linecap="butt" stroke-miterlimit="10" stroke-linejoin="miter" fill="none" stroke="#000000" d="M170.07825 .59775V-.59775"/>
<use data-text="3" xlink:href="#font_3_106" transform="matrix(9.963098,0,0,-9.9626,180.40326,277.091)"/>
<use data-text="0" xlink:href="#font_3_121" transform="matrix(9.963098,0,0,-9.9626,185.3848,277.091)"/>
<path transform="matrix(1.00005,0,0,-1,15.298012,266.338)" stroke-width=".3985" stroke-linecap="butt" stroke-miterlimit="10" stroke-linejoin="miter" fill="none" stroke="#000000" d="M198.42462 .59775V-.59775"/>
<use data-text="3" xlink:href="#font_3_106" transform="matrix(9.963098,0,0,-9.9626,208.75067,277.091)"/>
<use data-text="5" xlink:href="#font_3_56" transform="matrix(9.963098,0,0,-9.9626,213.73221,277.091)"/>
<path transform="matrix(1.00005,0,0,-1,15.298012,266.338)" stroke-width=".3985" stroke-linecap="butt" stroke-miterlimit="10" stroke-linejoin="miter" fill="none" stroke="#000000" d="M226.77101 .59775V-.59775"/>
<use data-text="4" xlink:href="#font_3_57" transform="matrix(9.963098,0,0,-9.9626,237.09909,277.2)"/>
<use data-text="0" xlink:href="#font_3_121" transform="matrix(9.963098,0,0,-9.9626,242.08063,277.2)"/>
<path transform="matrix(1.00005,0,0,-1,15.298012,266.338)" stroke-width=".3985" stroke-linecap="butt" stroke-miterlimit="10" stroke-linejoin="miter" fill="none" stroke="#000000" d="M0-11.33855V254.65909"/>
<path transform="matrix(0,-1,-1.00005,-0,15.298012,11.678925)" stroke-width=".31879" stroke-linecap="round" stroke-linejoin="round" fill="none" stroke="#000000" d="M-1.19551 1.59401C-1.09587 .99626 0 .09961 .29886 0 0-.09961-1.09587-.99626-1.19551-1.59401"/>
<use data-text="x" xlink:href="#font_1_1" transform="matrix(9.963098,0,0,-9.9626,18.818184,6.206024)"/>
<use data-text="2" xlink:href="#font_2_2" transform="matrix(6.9741489,0,0,-6.9738,24.512467,7.7010195)"/>
<path transform="matrix(1.00005,0,0,-1,15.298012,266.338)" stroke-width=".3985" stroke-linecap="butt" stroke-miterlimit="10" stroke-linejoin="miter" fill="none" stroke="#000000" d="M.59775 28.34636H-.59775"/>
<use data-text="5" xlink:href="#font_3_56" transform="matrix(9.963098,0,0,-9.9626,6.198555,241.20001)"/>
<path transform="matrix(1.00005,0,0,-1,15.298012,266.338)" stroke-width=".3985" stroke-linecap="butt" stroke-miterlimit="10" stroke-linejoin="miter" fill="none" stroke="#000000" d="M.59775 56.69275H-.59775"/>
<use data-text="1" xlink:href="#font_3_82" transform="matrix(9.963098,0,0,-9.9626,1.217308,212.85301)"/>
<use data-text="0" xlink:href="#font_3_121" transform="matrix(9.963098,0,0,-9.9626,6.1988527,212.85301)"/>
<path transform="matrix(1.00005,0,0,-1,15.298012,266.338)" stroke-width=".3985" stroke-linecap="butt" stroke-miterlimit="10" stroke-linejoin="miter" fill="none" stroke="#000000" d="M.59775 85.03911H-.59775"/>
<use data-text="1" xlink:href="#font_3_82" transform="matrix(9.963098,0,0,-9.9626,1.217308,184.50702)"/>
<use data-text="5" xlink:href="#font_3_56" transform="matrix(9.963098,0,0,-9.9626,6.1988527,184.50702)"/>
<path transform="matrix(1.00005,0,0,-1,15.298012,266.338)" stroke-width=".3985" stroke-linecap="butt" stroke-miterlimit="10" stroke-linejoin="miter" fill="none" stroke="#000000" d="M.59775 113.3855H-.59775"/>
<use data-text="2" xlink:href="#font_3_107" transform="matrix(9.963098,0,0,-9.9626,1.217308,156.16101)"/>
<use data-text="0" xlink:href="#font_3_121" transform="matrix(9.963098,0,0,-9.9626,6.1988527,156.16101)"/>
<path transform="matrix(1.00005,0,0,-1,15.298012,266.338)" stroke-width=".3985" stroke-linecap="butt" stroke-miterlimit="10" stroke-linejoin="miter" fill="none" stroke="#000000" d="M.59775 141.73188H-.59775"/>
<use data-text="2" xlink:href="#font_3_107" transform="matrix(9.963098,0,0,-9.9626,1.217308,127.81401)"/>
<use data-text="5" xlink:href="#font_3_56" transform="matrix(9.963098,0,0,-9.9626,6.1988527,127.81401)"/>
<path transform="matrix(1.00005,0,0,-1,15.298012,266.338)" stroke-width=".3985" stroke-linecap="butt" stroke-miterlimit="10" stroke-linejoin="miter" fill="none" stroke="#000000" d="M.59775 170.07825H-.59775"/>
<use data-text="3" xlink:href="#font_3_106" transform="matrix(9.963098,0,0,-9.9626,1.217308,99.46802)"/>
<use data-text="0" xlink:href="#font_3_121" transform="matrix(9.963098,0,0,-9.9626,6.1988527,99.46802)"/>
<path transform="matrix(1.00005,0,0,-1,15.298012,266.338)" stroke-width=".3985" stroke-linecap="butt" stroke-miterlimit="10" stroke-linejoin="miter" fill="none" stroke="#000000" d="M.59775 198.42462H-.59775"/>
<use data-text="3" xlink:href="#font_3_106" transform="matrix(9.963098,0,0,-9.9626,1.217308,71.12102)"/>
<use data-text="5" xlink:href="#font_3_56" transform="matrix(9.963098,0,0,-9.9626,6.1988527,71.12102)"/>
<path transform="matrix(1.00005,0,0,-1,15.298012,266.338)" stroke-width=".3985" stroke-linecap="butt" stroke-miterlimit="10" stroke-linejoin="miter" fill="none" stroke="#000000" d="M.59775 226.77101H-.59775"/>
<use data-text="4" xlink:href="#font_3_57" transform="matrix(9.963098,0,0,-9.9626,1.217308,42.830018)"/>
<use data-text="0" xlink:href="#font_3_121" transform="matrix(9.963098,0,0,-9.9626,6.1988527,42.830018)"/>
<path transform="matrix(1.00005,0,0,-1,15.298012,266.338)" stroke-width=".3985" stroke-linecap="butt" stroke-miterlimit="10" stroke-linejoin="miter" fill="none" stroke="#000000" d="M.59775 255.11737H-.59775"/>
<use data-text="4" xlink:href="#font_3_57" transform="matrix(9.963098,0,0,-9.9626,1.217308,14.483017)"/>
<use data-text="5" xlink:href="#font_3_56" transform="matrix(9.963098,0,0,-9.9626,6.1988527,14.483017)"/>
<path transform="matrix(1.00005,0,0,-1,15.298012,266.338)" stroke-width=".79701" stroke-linecap="butt" stroke-miterlimit="10" stroke-linejoin="miter" fill="none" stroke="#000000" d="M-10.91412 241.32315 180.99239-14.55214"/>
<path transform="matrix(-.60002,-.79997,-.8000099,.59999,4.3833467,25.014863)" stroke-width=".6376" stroke-linecap="round" stroke-linejoin="round" fill="none" stroke="#000000" d="M-1.55415 2.0722C-1.42464 1.29512 0 .1295 .38852 0 0-.1295-1.42464-1.29512-1.55415-2.0722"/>
<path transform="matrix(.60002,.79997,.8000099,-.59999,196.29944,280.89018)" stroke-width=".6376" stroke-linecap="round" stroke-linejoin="round" fill="none" stroke="#000000" d="M-1.55415 2.0722C-1.42464 1.29512 0 .1295 .38852 0 0-.1295-1.42464-1.29512-1.55415-2.0722"/>
<path transform="matrix(1.00005,0,0,-1,15.298012,266.338)" stroke-width=".79701" stroke-linecap="butt" stroke-miterlimit="10" stroke-linejoin="miter" fill="none" stroke="#000000" d="M-10.7059 118.73846 254.48474-13.85687"/>
<path transform="matrix(-.89440467,-.44717,-.4471923,.89436,4.591587,147.59957)" stroke-width=".6376" stroke-linecap="round" stroke-linejoin="round" fill="none" stroke="#000000" d="M-1.55415 2.0722C-1.42464 1.29512 0 .1295 .38852 0 0-.1295-1.42464-1.29512-1.55415-2.0722"/>
<path transform="matrix(.89440467,.44717,.4471923,-.89436,269.79545,280.1949)" stroke-width=".6376" stroke-linecap="round" stroke-linejoin="round" fill="none" stroke="#000000" d="M-1.55415 2.0722C-1.42464 1.29512 0 .1295 .38852 0 0-.1295-1.42464-1.29512-1.55415-2.0722"/>
<path transform="matrix(1.00005,0,0,-1,15.298012,266.338)" stroke-width=".79701" stroke-linecap="butt" stroke-miterlimit="10" stroke-linejoin="miter" fill="none" stroke="#000000" d="M-10.63118 90.70839H254.41"/>
<path transform="matrix(-1.00005,-0,0,1,4.666301,175.62963)" stroke-width=".6376" stroke-linecap="round" stroke-linejoin="round" fill="none" stroke="#000000" d="M-1.55415 2.0722C-1.42464 1.29512 0 .1295 .38852 0 0-.1295-1.42464-1.29512-1.55415-2.0722"/>
<path transform="matrix(1.00005,0,0,-1,269.72074,175.62963)" stroke-width=".6376" stroke-linecap="round" stroke-linejoin="round" fill="none" stroke="#000000" d="M-1.55415 2.0722C-1.42464 1.29512 0 .1295 .38852 0 0-.1295-1.42464-1.29512-1.55415-2.0722"/>
<path transform="matrix(1.00005,0,0,-1,15.298012,266.338)" d="M47.34671 90.70839C47.34671 91.80882 46.45462 92.70091 45.35419 92.70091 44.25374 92.70091 43.36166 91.80882 43.36166 90.70839 43.36166 89.60794 44.25374 88.71587 45.35419 88.71587 46.45462 88.71587 47.34671 89.60794 47.34671 90.70839ZM45.35419 90.70839"/>
<path transform="matrix(1.00005,0,0,-1,15.298012,266.338)" d="M104.03946 90.70839C104.03946 91.80882 103.14737 92.70091 102.04694 92.70091 100.9465 92.70091 100.05441 91.80882 100.05441 90.70839 100.05441 89.60794 100.9465 88.71587 102.04694 88.71587 103.14737 88.71587 104.03946 89.60794 104.03946 90.70839ZM102.04694 90.70839"/>
<path transform="matrix(1.00005,0,0,-1,15.298012,266.338)" d="M138.05512 45.35419C138.05512 46.45462 137.16304 47.34671 136.06259 47.34671 134.96216 47.34671 134.07007 46.45462 134.07007 45.35419 134.07007 44.25374 134.96216 43.36166 136.06259 43.36166 137.16304 43.36166 138.05512 44.25374 138.05512 45.35419ZM136.06259 45.35419"/>
<path transform="matrix(1.00005,0,0,-1,15.298012,266.338)" d="M172.07077 0C172.07077 1.10043 171.1787 1.99252 170.07825 1.99252 168.97782 1.99252 168.08573 1.10043 168.08573 0 168.08573-1.10043 168.97782-1.99252 170.07825-1.99252 171.1787-1.99252 172.07077-1.10043 172.07077 0ZM170.07825 0"/>
<path transform="matrix(1.00005,0,0,-1,15.298012,266.338)" d="M228.76354 0C228.76354 1.10043 227.87145 1.99252 226.77101 1.99252 225.67057 1.99252 224.77849 1.10043 224.77849 0 224.77849-1.10043 225.67057-1.99252 226.77101-1.99252 227.87145-1.99252 228.76354-1.10043 228.76354 0ZM226.77101 0"/>
<path transform="matrix(1.00005,0,0,-1,15.298012,266.338)" d="M1.99252 90.70839C1.99252 91.80882 1.10043 92.70091 0 92.70091-1.10043 92.70091-1.99252 91.80882-1.99252 90.70839-1.99252 89.60794-1.10043 88.71587 0 88.71587 1.10043 88.71587 1.99252 89.60794 1.99252 90.70839ZM0 90.70839"/>
<path transform="matrix(1.00005,0,0,-1,15.298012,266.338)" d="M1.99252 0C1.99252 1.10043 1.10043 1.99252 0 1.99252-1.10043 1.99252-1.99252 1.10043-1.99252 0-1.99252-1.10043-1.10043-1.99252 0-1.99252 1.10043-1.99252 1.99252-1.10043 1.99252 0ZM0 0"/>
<path transform="matrix(1.00005,0,0,-1,15.298012,266.338)" d="M1.99252 113.3855C1.99252 114.48595 1.10043 115.37802 0 115.37802-1.10043 115.37802-1.99252 114.48595-1.99252 113.3855-1.99252 112.28506-1.10043 111.39297 0 111.39297 1.10043 111.39297 1.99252 112.28506 1.99252 113.3855ZM0 113.3855"/>
<path transform="matrix(1.00005,0,0,-1,15.298012,266.338)" d="M1.99252 226.77101C1.99252 227.87145 1.10043 228.76354 0 228.76354-1.10043 228.76354-1.99252 227.87145-1.99252 226.77101-1.99252 225.67057-1.10043 224.77849 0 224.77849 1.10043 224.77849 1.99252 225.67057 1.99252 226.77101ZM0 226.77101"/>
<path transform="matrix(1.00005,0,0,-1,15.298012,266.338)" stroke-width=".3985" stroke-linecap="butt" stroke-miterlimit="10" stroke-linejoin="miter" fill="none" stroke="#000000" d="M56.69275 170.07825"/>
<use data-text="x" xlink:href="#font_1_1" transform="matrix(9.963098,0,0,-9.9626,75.51402,98.72301)"/>
<use data-text="3" xlink:href="#font_2_3" transform="matrix(6.9741489,0,0,-6.9738,81.2083,100.218)"/>
<use data-text="=" xlink:href="#font_4_2" transform="matrix(9.963098,0,0,-9.9626,88.44566,98.72301)"/>
<use data-text="0" xlink:href="#font_4_1" transform="matrix(9.963098,0,0,-9.9626,98.94676,98.72301)"/>
<path transform="matrix(1.00005,0,0,-1,15.298012,266.338)" stroke-width=".3985" stroke-linecap="butt" stroke-miterlimit="10" stroke-linejoin="miter" fill="none" stroke="#000000" d="M170.07825 34.01564"/>
<use data-text="x" xlink:href="#font_1_1" transform="matrix(9.963098,0,0,-9.9626,188.9047,234.78502)"/>
<use data-text="4" xlink:href="#font_2_4" transform="matrix(6.9741489,0,0,-6.9738,194.59897,236.28002)"/>
<use data-text="=" xlink:href="#font_4_2" transform="matrix(9.963098,0,0,-9.9626,201.83634,234.78502)"/>
<use data-text="0" xlink:href="#font_4_1" transform="matrix(9.963098,0,0,-9.9626,212.33744,234.78502)"/>
<path transform="matrix(1.00005,0,0,-1,15.298012,266.338)" stroke-width=".3985" stroke-linecap="butt" stroke-miterlimit="10" stroke-linejoin="miter" fill="none" stroke="#000000" d="M170.07825 90.70839"/>
<use data-text="x" xlink:href="#font_1_1" transform="matrix(9.963098,0,0,-9.9626,171.1698,170.61502)"/>
<use data-text="5" xlink:href="#font_2_5" transform="matrix(6.9741489,0,0,-6.9738,176.86408,172.11002)"/>
<use data-text="=" xlink:href="#font_4_2" transform="matrix(9.963098,0,0,-9.9626,184.10144,170.61502)"/>
<use data-text="0" xlink:href="#font_4_1" transform="matrix(9.963098,0,0,-9.9626,194.60254,170.61502)"/>
</svg>
